<svg id="visual" viewBox="0 0 960 540" width="960" height="540" xmlns="http://www.w3.org/2000/svg" xmlns:xlink="http://www.w3.org/1999/xlink" version="1.1"><rect x="0" y="0" width="960" height="540" fill="#fff"></rect><defs><linearGradient id="grad1_0" x1="43.8%" y1="0%" x2="100%" y2="100%"><stop offset="14.444444444444446%" stop-color="#15ace3" stop-opacity="1"></stop><stop offset="85.55555555555554%" stop-color="#15ace3" stop-opacity="1"></stop></linearGradient></defs><defs><linearGradient id="grad1_1" x1="43.8%" y1="0%" x2="100%" y2="100%"><stop offset="14.444444444444446%" stop-color="#15ace3" stop-opacity="1"></stop><stop offset="85.55555555555554%" stop-color="#a7d5f1" stop-opacity="1"></stop></linearGradient></defs><defs><linearGradient id="grad1_2" x1="43.8%" y1="0%" x2="100%" y2="100%"><stop offset="14.444444444444446%" stop-color="#ffffff" stop-opacity="1"></stop><stop offset="85.55555555555554%" stop-color="#a7d5f1" stop-opacity="1"></stop></linearGradient></defs><defs><linearGradient id="grad2_0" x1="0%" y1="0%" x2="56.3%" y2="100%"><stop offset="14.444444444444446%" stop-color="#15ace3" stop-opacity="1"></stop><stop offset="85.55555555555554%" stop-color="#15ace3" stop-opacity="1"></stop></linearGradient></defs><defs><linearGradient id="grad2_1" x1="0%" y1="0%" x2="56.3%" y2="100%"><stop offset="14.444444444444446%" stop-color="#a7d5f1" stop-opacity="1"></stop><stop offset="85.55555555555554%" stop-color="#15ace3" stop-opacity="1"></stop></linearGradient></defs><defs><linearGradient id="grad2_2" x1="0%" y1="0%" x2="56.3%" y2="100%"><stop offset="14.444444444444446%" stop-color="#a7d5f1" stop-opacity="1"></stop><stop offset="85.55555555555554%" stop-color="#ffffff" stop-opacity="1"></stop></linearGradient></defs><g transform="translate(960, 0)"><path d="M0 486C-55.7 487.6 -111.4 489.3 -150.2 462.2C-189 435.2 -210.8 379.4 -253.9 349.5C-297 319.5 -361.4 315.4 -388.3 282.1C-415.2 248.9 -404.6 186.6 -414.7 134.7C-424.7 82.9 -455.3 41.4 -486 0L0 0Z" fill="#d4eaf8"></path><path d="M0 324C-37.1 325.1 -74.3 326.2 -100.1 308.1C-126 290.1 -140.5 253 -169.3 233C-198 213 -241 210.2 -258.9 188.1C-276.8 165.9 -269.8 124.4 -276.4 89.8C-283.1 55.2 -303.6 27.6 -324 0L0 0Z" fill="#73c0ea"></path><path d="M0 162C-18.6 162.5 -37.1 163.1 -50.1 154.1C-63 145.1 -70.3 126.5 -84.6 116.5C-99 106.5 -120.5 105.1 -129.4 94C-138.4 83 -134.9 62.2 -138.2 44.9C-141.6 27.6 -151.8 13.8 -162 0L0 0Z" fill="#15ace3"></path></g><g transform="translate(0, 540)"><path d="M0 -486C37.7 -437.7 75.3 -389.5 121.1 -372.8C166.9 -356.2 220.9 -371.2 258 -355.2C295.2 -339.1 315.6 -292.1 351.1 -255.1C386.6 -218.1 437.2 -191 462.2 -150.2C487.2 -109.3 486.6 -54.7 486 0L0 0Z" fill="#d4eaf8"></path><path d="M0 -324C25.1 -291.8 50.2 -259.6 80.8 -248.5C111.3 -237.5 147.2 -247.4 172 -236.8C196.8 -226.1 210.4 -194.8 234.1 -170.1C257.7 -145.4 291.5 -127.4 308.1 -100.1C324.8 -72.9 324.4 -36.4 324 0L0 0Z" fill="#73c0ea"></path><path d="M0 -162C12.6 -145.9 25.1 -129.8 40.4 -124.3C55.6 -118.7 73.6 -123.7 86 -118.4C98.4 -113 105.2 -97.4 117 -85C128.9 -72.7 145.7 -63.7 154.1 -50.1C162.4 -36.4 162.2 -18.2 162 0L0 0Z" fill="#15ace3"></path></g></svg>