<svg id="Layer_2" data-name="Layer 2" xmlns="http://www.w3.org/2000/svg" viewBox="0 0 400.39 458.34">
<polygon points="10 109 200 0 391.76 109 244 195 129 127 168 105 240 147 302 111 200.88 51.69 53 137 10 109" style="fill:#ffffff"/>
<polygon points="0 347 0 127.19 190.6 237.1 190.6 458.34 147 432 147 263 117 246 117 414 74 390 73 220 42 203 42 372 0 347" style="fill:#ffffff"/>
<polygon points="210.01 458.34 210.01 238.29 400.39 127.19 400.39 176.81 253 261 253 298 400.39 211.33 400.39 262.56 253 346 254 430 210.01 458.34" style="fill:#ffffff"/>
</svg>